<svg xmlns="http://www.w3.org/2000/svg" viewBox="0 0 360 403.4" width="240" height="269">
<circle cx="274.6" cy="141.7" r="27.6" fill="#ffb703"></circle>
<circle cx="28.3" cy="201.4" r="28.3" fill="#ffb703"></circle>
<circle cx="87.3" cy="24.1" r="24.1" fill="#00a8cc"></circle>
<circle cx="274.4" cy="25.8" r="24.1" fill="#00a8cc"></circle>
<circle cx="27.6" cy="84.3" r="24.3" fill="#00a8cc"></circle>
<circle cx="334.4" cy="84.3" r="25.4" fill="#00a8cc"></circle>
<circle cx="86.7" cy="142.9" r="24.3" fill="#00a8cc"></circle>
<circle cx="149.9" cy="202" r="27.3" fill="#ffb703"></circle>
<circle cx="87.7" cy="201.6" r="23.5" fill="#3b0b59"></circle>
<circle cx="213.1" cy="203.2" r="25.1" fill="#00a8cc"></circle>
<circle cx="274.3" cy="201.6" r="22.1" fill="#3b0b59"></circle>
<circle cx="334.9" cy="203.2" r="25.1" fill="#00a8cc"></circle>
<circle cx="86.8" cy="263" r="27.1" fill="#ffb703"></circle>
<circle cx="274" cy="261.6" r="23.8" fill="#00a8cc"></circle>
<circle cx="27.2" cy="321.3" r="23.8" fill="#00a8cc"></circle>
<circle cx="335.3" cy="321.3" r="24.3" fill="#00a8cc"></circle>
<circle cx="86.3" cy="379.3" r="23.8" fill="#00a8cc"></circle>
<circle cx="274" cy="379.3" r="24.1" fill="#3b0b59"></circle>
<circle cx="274.3" cy="84.9" r="16.8" fill="#ffb703"></circle>
<circle cx="27.4" cy="142.4" r="14.8" fill="#00a8cc"></circle>
<circle cx="336" cy="142.3" r="16.1" fill="#ffb703"></circle>
<circle cx="334.4" cy="261.6" r="17.6" fill="#ffb703"></circle>
<circle cx="26.7" cy="381.2" r="14.4" fill="#00a8cc"></circle>
<circle cx="26.7" cy="26" r="13.9" fill="#0d1b2a"></circle>
<circle cx="334.4" cy="24.8" r="13.4" fill="#00a8cc"></circle>
<circle cx="87" cy="84.1" r="13.9" fill="#00a8cc"></circle>
<circle cx="25.9" cy="261.6" r="14.4" fill="#2a073f"></circle>
<circle cx="86.3" cy="320.2" r="13.4" fill="#0d1b2a"></circle>
<circle cx="275.8" cy="318.8" r="13.4" fill="#3b0b59"></circle>
<circle cx="334.4" cy="381.1" r="13.4" fill="#3b0b59"></circle>
</svg>