<svg xmlns="http://www.w3.org/2000/svg" viewBox="0 0 1560 652.1" width="800" height="334">
<circle cx="867.6" cy="172.3" r="56.3" fill="#ffb703"></circle>
<circle cx="614.5" cy="289.3" r="49.4" fill="#ffb703"></circle>
<circle cx="720.4" cy="286" r="55.3" fill="#ffb703"></circle>
<circle cx="766" cy="185.2" r="44.8" fill="#ffb703"></circle>
<circle cx="871.4" cy="66.1" r="48.7" fill="#ffb703"></circle>
<circle cx="502.7" cy="287.9" r="50.1" fill="#ffb703"></circle>
<circle cx="828.3" cy="289.9" r="49.6" fill="#9d4edd"></circle>
<circle cx="661.3" cy="70.7" r="48.5" fill="#33dbff"></circle>
<circle cx="765.4" cy="70.7" r="47.3" fill="#33dbff"></circle>
<circle cx="658" cy="181.5" r="46.7" fill="#33dbff"></circle>
<circle cx="871.5" cy="395.3" r="46.7" fill="#8a3fc7"></circle>
<circle cx="552.1" cy="180.7" r="45.5" fill="#33dbff"></circle>
<circle cx="400.1" cy="288.6" r="45.5" fill="#ffb703"></circle>
<circle cx="662" cy="397.5" r="45.5" fill="#8a3fc7"></circle>
<circle cx="553" cy="68.4" r="44.9" fill="#33dbff"></circle>
<circle cx="769" cy="395.8" r="44.9" fill="#8a3fc7"></circle>
<circle cx="556.2" cy="397.1" r="41.8" fill="#8a3fc7"></circle>
<circle cx="447.2" cy="71.8" r="39.1" fill="#33dbff"></circle>
<circle cx="444.9" cy="180.3" r="39.1" fill="#33dbff"></circle>
<circle cx="337.8" cy="180" r="36.9" fill="#33dbff"></circle>
<circle cx="294.3" cy="284.1" r="36.2" fill="#ffb703"></circle>
<circle cx="451.4" cy="396.5" r="36.2" fill="#8a3fc7"></circle>
<circle cx="232.4" cy="181.6" r="31.3" fill="#33dbff"></circle>
<circle cx="188.1" cy="287.1" r="31.3" fill="#ffb703"></circle>
<circle cx="340.1" cy="71.8" r="29.6" fill="#33dbff"></circle>
<circle cx="83.8" cy="286" r="27.6" fill="#ffb703"></circle>
<circle cx="342.9" cy="399.2" r="27.6" fill="#8a3fc7"></circle>
<circle cx="126.4" cy="180.7" r="24.5" fill="#33dbff"></circle>
<circle cx="240.4" cy="397" r="22.2" fill="#8a3fc7"></circle>
<circle cx="20.9" cy="181.5" r="20.9" fill="#33dbff"></circle>
<circle cx="824.7" cy="471.2" r="20.9" fill="#5fe0ff"></circle>
<circle cx="850.9" cy="523.6" r="20.9" fill="#ffb703"></circle>
<circle cx="137.1" cy="396.4" r="19.5" fill="#8a3fc7"></circle>
<circle cx="778.9" cy="467.5" r="19.5" fill="#ffb703"></circle>
<circle cx="879.9" cy="471.2" r="19.5" fill="#5fe0ff"></circle>
<circle cx="988.4" cy="211.9" r="17" fill="#ffb703"></circle>
<circle cx="1414" cy="211.9" r="14.4" fill="#33dbff"></circle>
<circle cx="1414" cy="244.7" r="17" fill="#33dbff"></circle>
<circle cx="1021.1" cy="277.4" r="17" fill="#ffb703"></circle>
<circle cx="1283.1" cy="277.4" r="17" fill="#33dbff"></circle>
<circle cx="1381.3" cy="277.4" r="17" fill="#33dbff"></circle>
<circle cx="1283.1" cy="375.6" r="14.4" fill="#33dbff"></circle>
<circle cx="1217.6" cy="408.4" r="17" fill="#33dbff"></circle>
<circle cx="1283.1" cy="408.4" r="17" fill="#7ce4ff"></circle>
<circle cx="988.4" cy="473.8" r="17" fill="#ffb703"></circle>
<circle cx="922.9" cy="179.2" r="10.5" fill="#ffb703"></circle>
<circle cx="1381.3" cy="179.2" r="14.9" fill="#33dbff"></circle>
<circle cx="1381.3" cy="211.9" r="16.5" fill="#7ce4ff"></circle>
<circle cx="1119.4" cy="277.4" r="14.9" fill="#33dbff"></circle>
<circle cx="1152.1" cy="277.4" r="16.5" fill="#33dbff"></circle>
<circle cx="955.7" cy="375.6" r="16.5" fill="#9d4edd"></circle>
<circle cx="1021.1" cy="375.6" r="14.9" fill="#ffb703"></circle>
<circle cx="1053.9" cy="375.6" r="16.5" fill="#ffb703"></circle>
<circle cx="1217.6" cy="375.6" r="14.4" fill="#33dbff"></circle>
<circle cx="1250.3" cy="375.6" r="16.5" fill="#7ce4ff"></circle>
<circle cx="1381.3" cy="375.6" r="16.5" fill="#33dbff"></circle>
<circle cx="1315.8" cy="408.4" r="14.4" fill="#33dbff"></circle>
<circle cx="1348.6" cy="408.4" r="14.9" fill="#33dbff"></circle>
<circle cx="1250.3" cy="441.1" r="16.5" fill="#33dbff"></circle>
<circle cx="1348.6" cy="441.1" r="16.5" fill="#33dbff"></circle>
<circle cx="1053.9" cy="473.8" r="16.5" fill="#7ce4ff"></circle>
<circle cx="1217.6" cy="473.8" r="16.5" fill="#33dbff"></circle>
<circle cx="1283.1" cy="473.8" r="14.9" fill="#33dbff"></circle>
<circle cx="1315.8" cy="473.8" r="16.5" fill="#33dbff"></circle>
<circle cx="922.9" cy="80.9" r="10.5" fill="#ffb703"></circle>
<circle cx="922.9" cy="113.7" r="16" fill="#ffc733"></circle>
<circle cx="988.4" cy="113.7" r="16" fill="#ffb703"></circle>
<circle cx="1053.9" cy="113.7" r="16" fill="#ffb703"></circle>
<circle cx="1152.1" cy="113.7" r="16" fill="#33dbff"></circle>
<circle cx="1414" cy="113.7" r="16" fill="#33dbff"></circle>
<circle cx="1446.8" cy="113.7" r="16" fill="#ffb703"></circle>
<circle cx="1479.5" cy="113.7" r="16" fill="#33dbff"></circle>
<circle cx="1119.4" cy="179.2" r="16" fill="#33dbff"></circle>
<circle cx="1414" cy="179.2" r="16" fill="#7ce4ff"></circle>
<circle cx="1446.8" cy="179.2" r="16" fill="#33dbff"></circle>
<circle cx="1119.4" cy="211.9" r="16" fill="#33dbff"></circle>
<circle cx="1152.1" cy="211.9" r="16" fill="#33dbff"></circle>
<circle cx="1217.6" cy="211.9" r="16" fill="#33dbff"></circle>
<circle cx="1184.9" cy="244.7" r="16" fill="#33dbff"></circle>
<circle cx="1217.6" cy="244.7" r="16" fill="#33dbff"></circle>
<circle cx="1086.6" cy="277.4" r="16" fill="#33dbff"></circle>
<circle cx="1217.6" cy="277.4" r="16" fill="#33dbff"></circle>
<circle cx="1250.3" cy="277.4" r="14.4" fill="#33dbff"></circle>
<circle cx="1348.6" cy="277.4" r="14.4" fill="#33dbff"></circle>
<circle cx="1152.1" cy="310.1" r="16" fill="#33dbff"></circle>
<circle cx="1152.1" cy="342.9" r="16" fill="#33dbff"></circle>
<circle cx="1217.6" cy="342.9" r="16" fill="#7ce4ff"></circle>
<circle cx="1250.3" cy="342.9" r="16" fill="#7ce4ff"></circle>
<circle cx="1283.1" cy="342.9" r="16" fill="#7ce4ff"></circle>
<circle cx="1414" cy="342.9" r="16" fill="#33dbff"></circle>
<circle cx="1184.9" cy="375.6" r="16" fill="#7ce4ff"></circle>
<circle cx="1184.9" cy="408.4" r="14.4" fill="#33dbff"></circle>
<circle cx="1250.3" cy="408.4" r="14.4" fill="#33dbff"></circle>
<circle cx="1086.6" cy="441.1" r="16" fill="#33dbff"></circle>
<circle cx="1152.1" cy="441.1" r="16" fill="#33dbff"></circle>
<circle cx="1283.1" cy="441.1" r="14.4" fill="#7ce4ff"></circle>
<circle cx="1315.8" cy="441.1" r="16" fill="#33dbff"></circle>
<circle cx="955.7" cy="473.8" r="14.4" fill="#ffb703"></circle>
<circle cx="1119.4" cy="473.8" r="16" fill="#33dbff"></circle>
<circle cx="1152.1" cy="473.8" r="16" fill="#33dbff"></circle>
<circle cx="1315.8" cy="506.6" r="16" fill="#33dbff"></circle>
<circle cx="988.4" cy="572.1" r="16" fill="#7ce4ff"></circle>
<circle cx="1512.3" cy="15.5" r="15.5" fill="#33dbff"></circle>
<circle cx="922.9" cy="48.2" r="10.5" fill="#ffc733"></circle>
<circle cx="1479.5" cy="48.2" r="15.5" fill="#ffb703"></circle>
<circle cx="1512.3" cy="48.2" r="15.5" fill="#33dbff"></circle>
<circle cx="955.7" cy="113.7" r="15.5" fill="#ffb703"></circle>
<circle cx="1021.1" cy="113.7" r="15.5" fill="#ffb703"></circle>
<circle cx="1119.4" cy="113.7" r="15.5" fill="#33dbff"></circle>
<circle cx="922.9" cy="146.4" r="10.5" fill="#ffc733"></circle>
<circle cx="955.7" cy="146.4" r="15.5" fill="#ffb703"></circle>
<circle cx="1086.6" cy="146.4" r="15.5" fill="#33dbff"></circle>
<circle cx="1446.8" cy="146.4" r="15.5" fill="#5fe0ff"></circle>
<circle cx="955.7" cy="179.2" r="15.5" fill="#ffb703"></circle>
<circle cx="988.4" cy="179.2" r="15.5" fill="#ffb703"></circle>
<circle cx="1086.6" cy="179.2" r="15.5" fill="#33dbff"></circle>
<circle cx="955.7" cy="211.9" r="15.5" fill="#33dbff"></circle>
<circle cx="1053.9" cy="211.9" r="15.5" fill="#ffb703"></circle>
<circle cx="1184.9" cy="211.9" r="15.5" fill="#33dbff"></circle>
<circle cx="1119.4" cy="244.7" r="15.5" fill="#33dbff"></circle>
<circle cx="1184.9" cy="277.4" r="15.5" fill="#33dbff"></circle>
<circle cx="1315.8" cy="277.4" r="15.5" fill="#33dbff"></circle>
<circle cx="1021.1" cy="310.1" r="15.5" fill="#ffb703"></circle>
<circle cx="1086.6" cy="310.1" r="15.5" fill="#ffb703"></circle>
<circle cx="1184.9" cy="310.1" r="15.5" fill="#33dbff"></circle>
<circle cx="1283.1" cy="310.1" r="15.5" fill="#33dbff"></circle>
<circle cx="1184.9" cy="342.9" r="15.5" fill="#7ce4ff"></circle>
<circle cx="1348.6" cy="342.9" r="15.5" fill="#33dbff"></circle>
<circle cx="1381.3" cy="342.9" r="15.5" fill="#5fe0ff"></circle>
<circle cx="988.4" cy="375.6" r="15.5" fill="#ffb703"></circle>
<circle cx="1119.4" cy="375.6" r="15.5" fill="#33dbff"></circle>
<circle cx="1152.1" cy="375.6" r="15.5" fill="#33dbff"></circle>
<circle cx="1315.8" cy="375.6" r="15.5" fill="#33dbff"></circle>
<circle cx="1348.6" cy="375.6" r="15.5" fill="#33dbff"></circle>
<circle cx="1086.6" cy="408.4" r="15.5" fill="#33dbff"></circle>
<circle cx="1152.1" cy="408.4" r="15.5" fill="#33dbff"></circle>
<circle cx="1184.9" cy="441.1" r="15.5" fill="#33dbff"></circle>
<circle cx="1217.6" cy="441.1" r="15.5" fill="#33dbff"></circle>
<circle cx="922.9" cy="473.8" r="15.5" fill="#ffb703"></circle>
<circle cx="1184.9" cy="473.8" r="15.5" fill="#7ce4ff"></circle>
<circle cx="1250.3" cy="473.8" r="15.5" fill="#33dbff"></circle>
<circle cx="1348.6" cy="572.1" r="15.5" fill="#9d4edd"></circle>
<circle cx="1381.3" cy="604.8" r="15.5" fill="#7ce4ff"></circle>
<circle cx="1021.1" cy="48.2" r="15" fill="#33dbff"></circle>
<circle cx="1545" cy="48.2" r="15" fill="#33dbff"></circle>
<circle cx="1479.5" cy="80.9" r="15" fill="#33dbff"></circle>
<circle cx="988.4" cy="146.4" r="15" fill="#ffb703"></circle>
<circle cx="1021.1" cy="146.4" r="15" fill="#5fe0ff"></circle>
<circle cx="1119.4" cy="146.4" r="15" fill="#33dbff"></circle>
<circle cx="1414" cy="146.4" r="15" fill="#7ce4ff"></circle>
<circle cx="1021.1" cy="179.2" r="15" fill="#5fe0ff"></circle>
<circle cx="1217.6" cy="179.2" r="15" fill="#33dbff"></circle>
<circle cx="1250.3" cy="179.2" r="15" fill="#ffb703"></circle>
<circle cx="1348.6" cy="179.2" r="15" fill="#ffb703"></circle>
<circle cx="922.9" cy="211.9" r="10.5" fill="#ffc733"></circle>
<circle cx="1021.1" cy="211.9" r="15" fill="#ffb703"></circle>
<circle cx="1086.6" cy="211.9" r="15" fill="#33dbff"></circle>
<circle cx="1250.3" cy="211.9" r="15" fill="#33dbff"></circle>
<circle cx="1348.6" cy="211.9" r="15" fill="#33dbff"></circle>
<circle cx="1446.8" cy="211.9" r="15" fill="#33dbff"></circle>
<circle cx="988.4" cy="244.7" r="15" fill="#ffb703"></circle>
<circle cx="1021.1" cy="244.7" r="15" fill="#ffb703"></circle>
<circle cx="1152.1" cy="244.7" r="15" fill="#33dbff"></circle>
<circle cx="1250.3" cy="244.7" r="15" fill="#33dbff"></circle>
<circle cx="1381.3" cy="244.7" r="15" fill="#5fe0ff"></circle>
<circle cx="922.9" cy="277.4" r="15" fill="#ffb703"></circle>
<circle cx="955.7" cy="277.4" r="15" fill="#5fe0ff"></circle>
<circle cx="1053.9" cy="277.4" r="15" fill="#33dbff"></circle>
<circle cx="1053.9" cy="310.1" r="15" fill="#ffb703"></circle>
<circle cx="1119.4" cy="310.1" r="15" fill="#33dbff"></circle>
<circle cx="1217.6" cy="310.1" r="15" fill="#7ce4ff"></circle>
<circle cx="1250.3" cy="310.1" r="15" fill="#7ce4ff"></circle>
<circle cx="1315.8" cy="310.1" r="15" fill="#7ce4ff"></circle>
<circle cx="1381.3" cy="310.1" r="15" fill="#33dbff"></circle>
<circle cx="1414" cy="310.1" r="15" fill="#33dbff"></circle>
<circle cx="1119.4" cy="342.9" r="15" fill="#33dbff"></circle>
<circle cx="1315.8" cy="342.9" r="15" fill="#33dbff"></circle>
<circle cx="1119.4" cy="441.1" r="15" fill="#33dbff"></circle>
<circle cx="1086.6" cy="473.8" r="15" fill="#33dbff"></circle>
<circle cx="1086.6" cy="506.6" r="15" fill="#8a3fc7"></circle>
<circle cx="1119.4" cy="506.6" r="15" fill="#7ce4ff"></circle>
<circle cx="1021.1" cy="539.3" r="15" fill="#9d4edd"></circle>
<circle cx="1086.6" cy="539.3" r="15" fill="#7ce4ff"></circle>
<circle cx="1119.4" cy="539.3" r="15" fill="#33dbff"></circle>
<circle cx="1152.1" cy="539.3" r="15" fill="#33dbff"></circle>
<circle cx="1348.6" cy="539.3" r="15" fill="#7ce4ff"></circle>
<circle cx="955.7" cy="604.8" r="15" fill="#33dbff"></circle>
<circle cx="903.3" cy="255.1" r="13.4" fill="#ffc733"></circle>
<circle cx="903.3" cy="320.6" r="14.8" fill="#5fe0ff"></circle>
<circle cx="680.6" cy="464.7" r="14.8" fill="#5fe0ff"></circle>
<circle cx="733" cy="464.7" r="14.8" fill="#ffb703"></circle>
<circle cx="903.3" cy="517.1" r="14.8" fill="#ffb703"></circle>
<circle cx="955.7" cy="48.2" r="14.5" fill="#ffb703"></circle>
<circle cx="988.4" cy="48.2" r="14.5" fill="#33dbff"></circle>
<circle cx="1086.6" cy="48.2" r="14.5" fill="#33dbff"></circle>
<circle cx="1512.3" cy="80.9" r="14.5" fill="#33dbff"></circle>
<circle cx="1086.6" cy="113.7" r="14.5" fill="#33dbff"></circle>
<circle cx="1381.3" cy="146.4" r="14.5" fill="#33dbff"></circle>
<circle cx="1479.5" cy="146.4" r="14.5" fill="#33dbff"></circle>
<circle cx="1152.1" cy="179.2" r="14.5" fill="#33dbff"></circle>
<circle cx="1184.9" cy="179.2" r="14.5" fill="#ffc733"></circle>
<circle cx="1283.1" cy="211.9" r="14.5" fill="#33dbff"></circle>
<circle cx="1315.8" cy="211.9" r="14.5" fill="#33dbff"></circle>
<circle cx="955.7" cy="244.7" r="14.5" fill="#5fe0ff"></circle>
<circle cx="1053.9" cy="244.7" r="14.5" fill="#ffb703"></circle>
<circle cx="1086.6" cy="244.7" r="14.5" fill="#33dbff"></circle>
<circle cx="1283.1" cy="244.7" r="14.5" fill="#33dbff"></circle>
<circle cx="1315.8" cy="244.7" r="14.5" fill="#33dbff"></circle>
<circle cx="1348.6" cy="244.7" r="14.5" fill="#33dbff"></circle>
<circle cx="988.4" cy="277.4" r="14.5" fill="#ffb703"></circle>
<circle cx="1414" cy="277.4" r="14.5" fill="#33dbff"></circle>
<circle cx="988.4" cy="310.1" r="14.5" fill="#ffb703"></circle>
<circle cx="1348.6" cy="310.1" r="14.5" fill="#7ce4ff"></circle>
<circle cx="988.4" cy="342.9" r="14.5" fill="#ffb703"></circle>
<circle cx="1021.1" cy="342.9" r="14.5" fill="#ffb703"></circle>
<circle cx="1053.9" cy="342.9" r="14.5" fill="#ffb703"></circle>
<circle cx="1086.6" cy="342.9" r="14.5" fill="#ffb703"></circle>
<circle cx="922.9" cy="375.6" r="10.5" fill="#9d4edd"></circle>
<circle cx="1086.6" cy="375.6" r="14.5" fill="#5fe0ff"></circle>
<circle cx="922.9" cy="408.4" r="10.5" fill="#5fe0ff"></circle>
<circle cx="1021.1" cy="408.4" r="14.5" fill="#9d4edd"></circle>
<circle cx="1053.9" cy="408.4" r="14.5" fill="#33dbff"></circle>
<circle cx="1119.4" cy="408.4" r="14.5" fill="#33dbff"></circle>
<circle cx="1381.3" cy="408.4" r="14.5" fill="#5fe0ff"></circle>
<circle cx="1021.1" cy="441.1" r="14.5" fill="#9d4edd"></circle>
<circle cx="1053.9" cy="441.1" r="14.5" fill="#33dbff"></circle>
<circle cx="1021.1" cy="473.8" r="14.5" fill="#ffb703"></circle>
<circle cx="1348.6" cy="473.8" r="14.5" fill="#33dbff"></circle>
<circle cx="922.9" cy="506.6" r="10.5" fill="#ffb703"></circle>
<circle cx="988.4" cy="506.6" r="14.5" fill="#ffb703"></circle>
<circle cx="1053.9" cy="506.6" r="14.5" fill="#7ce4ff"></circle>
<circle cx="1152.1" cy="506.6" r="14.5" fill="#7ce4ff"></circle>
<circle cx="1348.6" cy="506.6" r="14.5" fill="#33dbff"></circle>
<circle cx="922.9" cy="539.3" r="14.5" fill="#ffb703"></circle>
<circle cx="955.7" cy="539.3" r="14.5" fill="#5fe0ff"></circle>
<circle cx="988.4" cy="539.3" r="14.5" fill="#5fe0ff"></circle>
<circle cx="1053.9" cy="539.3" r="14.5" fill="#7ce4ff"></circle>
<circle cx="922.9" cy="572.1" r="14.5" fill="#ffb703"></circle>
<circle cx="955.7" cy="572.1" r="14.5" fill="#ffb703"></circle>
<circle cx="1381.3" cy="637.6" r="14.5" fill="#7ce4ff"></circle>
<circle cx="903.3" cy="274.8" r="10.5" fill="#ffb703"></circle>
<circle cx="680.6" cy="484.3" r="10.5" fill="#5fe0ff"></circle>
<circle cx="903.3" cy="536.7" r="10.5" fill="#ffb703"></circle>
</svg>